<svg width="648" height="175" viewBox="0 0 648 175" fill="none" xmlns="http://www.w3.org/2000/svg">
<g clip-path="url(#clip0_251_22661)">
<path d="M0.544922 80.6907H45.5449V98.6907H0.544922V80.6907ZM45.5449 62.1911C43.5449 61.1916 41.5449 59.6912 37.0449 60.1912C32.5449 60.6912 30.5449 64.3893 30.5449 66.4488V142.649H8.54492V66.4488C8.54492 56.6911 17.0449 46.0238 25.5449 43.1912C34.0449 40.3585 41.0449 40.6916 45.5449 43.9239V62.1911Z" fill="black"/>
<path d="M74.1787 80.6905V142.649H52.5449V80.6905H74.1787ZM99.0449 101.074C92.5449 98.191 86.5449 98.6911 82.0449 100.691C77.5449 102.691 74.1787 107.989 74.1787 115.191L69.5449 106.608C69.5449 94.6911 77.0449 85.1911 82.5449 82.6911C88.0449 80.1911 92.5449 79.691 99.0449 80.3454V101.074Z" fill="black"/>
<path d="M136.775 145.191C115.504 145.191 101.545 132.691 101.545 112.191C101.545 91.6914 114.121 78.6914 136.775 78.6914C151.191 78.6914 170.045 85.1914 170.045 115.464L114.121 115.191V103.191H150.045C148.414 95.6914 142.39 93.1914 135.545 93.1914C127.045 93.1914 124.575 100.531 123.545 103.191C122.601 105.766 123.045 115.235 123.045 115.235C123.045 115.235 122.545 129.691 136.045 129.691C147.045 129.691 148.045 124.191 148.045 124.191H169.045C168.545 132.691 158.045 145.191 136.775 145.191Z" fill="black"/>
<path d="M179.252 81.1914H201.045V142.649H179.252V81.1914Z" fill="black"/>
<path d="M211.045 150.191H236.045C236.045 150.191 238.045 156.876 246.579 156.876C255.228 156.876 261.381 152.691 261.381 140.401V80.6914H282.545V140.401C282.545 156.876 275.045 174.191 249.545 174.191C222.045 174.191 211.045 158.691 211.045 150.191ZM210.545 111.311C210.545 94.6742 222.545 78.6914 244.545 78.6914C259.045 78.6914 266.787 95.8702 266.787 111.311C266.787 126.752 262.545 144.191 241.173 144.191C219.8 144.191 210.545 127.948 210.545 111.311ZM233.45 111.311C233.45 119.202 239.718 125.836 247.608 125.727C255.394 125.619 261.381 119.097 261.381 111.311C261.381 103.525 255.394 97.799 247.608 97.6914C239.718 97.5824 233.45 103.42 233.45 111.311Z" fill="black"/>
<path d="M317.545 42.25V142.649H296.045V42.25H317.545ZM339.141 106.608C338.545 96.1911 331.374 96.4191 328.545 96.1911C322.087 95.6706 318.045 104.291 318.045 106.608L312.045 102.191C313.045 97.0832 316.979 90.1911 321.045 86.1911C325.111 82.1911 330.469 78.8607 337.545 78.6911C351.227 78.3631 361.045 84.7951 361.045 104.691V142.649H339.141V106.608Z" fill="black"/>
<path d="M370.045 80.6914H411.545V98.6914H370.045V80.6914ZM377.045 62.1914H399.045V142.649H377.045V62.1914Z" fill="black"/>
<path d="M518.545 118.191C518.545 123.191 521.045 128.191 529.045 128.191C537.045 128.191 540.609 123.191 540.609 118.191V81.1914H562.545V119.48C562.545 129.191 559.045 145.191 530.045 145.191C501.045 145.191 496.545 129.191 496.545 121.539V81.1914H518.545V118.191Z" fill="black"/>
<path d="M596.481 42.0049V143.191H575.045V42.0049H596.481ZM647.545 111.691C647.545 131.691 632.377 145.191 616.045 145.191C598.045 145.191 589.045 128.989 589.045 112.799C589.045 91.6909 599.856 78.8479 616.045 78.6909C632.376 78.5325 647.545 91.6909 647.545 111.691ZM624.545 112.191C624.545 102.083 618.361 97.7648 610.254 97.6104C601.998 97.4533 596.481 104.542 596.481 112.799C596.481 121.056 601.998 126.348 610.254 126.191C618.361 126.037 624.545 120.3 624.545 112.191Z" fill="black"/>
<path d="M439.545 42.25V142.649H418.045V42.25H439.545ZM461.141 106.608C460.545 96.191 453.374 96.419 450.545 96.1911C444.087 95.6706 440.045 104.291 440.045 106.608L434.045 102.191C435.045 97.0832 438.979 90.1911 443.045 86.1911C447.111 82.1911 452.469 78.8607 459.545 78.6911C473.227 78.3631 483.045 84.7951 483.045 104.691V142.649H461.141V106.608Z" fill="black"/>
<path d="M79.6523 60.7334C79.6523 68.7415 73.1605 75.2334 65.1523 75.2334C57.1442 75.2334 50.6523 68.7415 50.6523 60.7334C50.6523 52.7253 57.1442 46.2334 65.1523 46.2334C73.1605 46.2334 79.6523 52.7253 79.6523 60.7334Z" fill="black"/>
<path d="M72.6523 60.7334C72.6523 64.8755 69.2945 68.2334 65.1523 68.2334C61.0102 68.2334 57.6523 64.8755 57.6523 60.7334C57.6523 56.5913 61.0102 53.2334 65.1523 53.2334C69.2945 53.2334 72.6523 56.5913 72.6523 60.7334Z" fill="#FE6600"/>
<path d="M205.018 44.54C205.018 52.5482 198.526 59.04 190.518 59.04C182.509 59.04 176.018 52.5482 176.018 44.54C176.018 36.5319 182.509 30.04 190.518 30.04C198.526 30.04 205.018 36.5319 205.018 44.54Z" fill="black"/>
<path d="M198.018 44.54C198.018 48.6822 194.66 52.04 190.518 52.04C186.375 52.04 183.018 48.6822 183.018 44.54C183.018 40.3979 186.375 37.04 190.518 37.04C194.66 37.04 198.018 40.3979 198.018 44.54Z" fill="#2EB573"/>
<path d="M187.438 22.8027V0.802734H193.938V22.8027H187.438Z" fill="black"/>
<path d="M211.938 41.3027H234.438V47.8027H211.938V41.3027Z" fill="black"/>
<path d="M203.354 26.9034L219.355 10.9844L223.939 15.5925L207.939 31.5115L203.354 26.9034Z" fill="black"/>
<path d="M106.643 63.8232H78.1426V57.3232H104.143C114.143 57.3232 118.143 41.3232 131.643 41.3232H177.143V47.8232H133.143C121.682 47.8232 118.643 63.8232 106.643 63.8232Z" fill="black"/>
</g>
<defs>
<clipPath id="clip0_251_22661">
<rect width="648" height="174" fill="white" transform="translate(0 0.5)"/>
</clipPath>
</defs>
</svg>
